<?xml version="1.0" encoding="UTF-8"?>
<!DOCTYPE svg PUBLIC "-//W3C//DTD SVG 1.1//EN" "http://www.w3.org/Graphics/SVG/1.1/DTD/svg11.dtd">
<svg xmlns="http://www.w3.org/2000/svg" version="1.1" width="2053px" height="400px" style="shape-rendering:geometricPrecision; text-rendering:geometricPrecision; image-rendering:optimizeQuality; fill-rule:evenodd; clip-rule:evenodd" xmlns:xlink="http://www.w3.org/1999/xlink">
<g><path style="opacity:1" fill="#242524" d="M 1665.5,3.5 C 1686.5,3.33338 1707.5,3.50004 1728.5,4C 1745.31,5.63685 1756.14,14.4702 1761,30.5C 1763.58,41.1905 1762.58,51.5239 1758,61.5C 1755.5,65.3333 1752.33,68.5 1748.5,71C 1761.78,77.8862 1768.45,88.8862 1768.5,104C 1766.83,129.005 1753.5,143.005 1728.5,146C 1707.26,146.826 1686.09,146.66 1665,145.5C 1664.17,98.0959 1664.34,50.7625 1665.5,3.5 Z M 1688.5,25.5 C 1701.91,25.0556 1715.24,25.5556 1728.5,27C 1735.26,30.3314 1738.59,35.8314 1738.5,43.5C 1738.59,51.1686 1735.26,56.6686 1728.5,60C 1715.24,61.4444 1701.91,61.9444 1688.5,61.5C 1688.5,49.5 1688.5,37.5 1688.5,25.5 Z M 1688.5,82.5 C 1702.55,82.0913 1716.55,82.5913 1730.5,84C 1742.19,88.5346 1746.69,97.0346 1744,109.5C 1741.61,117.886 1736.11,122.72 1727.5,124C 1714.5,124.5 1701.5,124.667 1688.5,124.5C 1688.5,110.5 1688.5,96.5 1688.5,82.5 Z"/></g>
<g><path style="opacity:1" fill="#242524" d="M 1895.5,17.5 C 1902.09,17.189 1908.59,17.5223 1915,18.5C 1915.98,27.163 1916.81,35.8297 1917.5,44.5C 1925.17,44.3336 1932.84,44.5003 1940.5,45C 1941.83,51.3333 1941.83,57.6667 1940.5,64C 1932.84,64.4997 1925.17,64.6664 1917.5,64.5C 1917.05,82.8887 1917.55,101.222 1919,119.5C 1920.89,123.058 1923.73,125.558 1927.5,127C 1933.08,127.191 1938.58,127.691 1944,128.5C 1944.67,134.5 1944.67,140.5 1944,146.5C 1931.3,150.124 1919.13,148.624 1907.5,142C 1899.79,136.076 1895.62,128.243 1895,118.5C 1894.17,84.7618 1894.34,51.0952 1895.5,17.5 Z"/></g>
<g><path style="opacity:1" fill="#242524" d="M 1823.5,40.5 C 1838.79,38.7643 1852.29,42.7643 1864,52.5C 1868.3,57.4378 1871.3,63.1044 1873,69.5C 1874.52,80.7895 1874.86,92.1229 1874,103.5C 1852.91,104.494 1831.74,104.827 1810.5,104.5C 1808.76,116.224 1813.43,123.724 1824.5,127C 1837.91,128.729 1850.25,125.896 1861.5,118.5C 1866.58,121.959 1870.25,126.626 1872.5,132.5C 1865.03,139.908 1856.03,144.741 1845.5,147C 1829.25,150.882 1814.25,148.215 1800.5,139C 1793.31,132.797 1789.15,124.964 1788,115.5C 1787.33,101.833 1787.33,88.1667 1788,74.5C 1791.58,54.4736 1803.41,43.1403 1823.5,40.5 Z M 1824.5,61.5 C 1843.51,59.1819 1852.51,67.5152 1851.5,86.5C 1837.83,86.5 1824.17,86.5 1810.5,86.5C 1808.77,74.2739 1813.43,65.9406 1824.5,61.5 Z"/></g>
<g><path style="opacity:1" fill="#242524" d="M 1989.5,40.5 C 2002.73,38.9783 2015.06,41.4783 2026.5,48C 2034.84,54.8407 2039.34,63.674 2040,74.5C 2040.67,96.5 2040.67,118.5 2040,140.5C 2039.1,141.701 2037.93,142.535 2036.5,143C 2019.4,147.777 2002.07,149.11 1984.5,147C 1961.17,142.668 1951.67,128.835 1956,105.5C 1961.13,93.4939 1970.3,86.6605 1983.5,85C 1994.55,83.0428 2005.55,83.2095 2016.5,85.5C 2018.91,76.9793 2016.91,69.8126 2010.5,64C 1996.57,59.7142 1983.23,61.2142 1970.5,68.5C 1966.48,63.6345 1962.81,58.4679 1959.5,53C 1964.79,47.8551 1971.12,44.5218 1978.5,43C 1982.31,42.2045 1985.98,41.3712 1989.5,40.5 Z M 1990.5,102.5 C 1999.52,102.448 2008.52,102.782 2017.5,103.5C 2017.5,111.167 2017.5,118.833 2017.5,126.5C 2011.54,127.446 2005.54,128.113 1999.5,128.5C 1993.57,128.548 1987.9,127.381 1982.5,125C 1976.77,119.585 1976.11,113.585 1980.5,107C 1983.7,104.997 1987.04,103.497 1990.5,102.5 Z"/></g>
<g><path style="opacity:1" fill="#284fff" d="M 565.5,399.5 C 560.167,399.5 554.833,399.5 549.5,399.5C 502.774,390.276 473.274,362.609 461,316.5C 459.356,255.864 459.023,195.198 460,134.5C 474.375,120.293 488.541,105.959 502.5,91.5C 503.5,124.16 503.833,156.827 503.5,189.5C 523.833,189.5 544.167,189.5 564.5,189.5C 564.5,204.167 564.5,218.833 564.5,233.5C 544.167,233.5 523.833,233.5 503.5,233.5C 503.333,257.502 503.5,281.502 504,305.5C 512.118,337.455 532.618,354.122 565.5,355.5C 565.5,370.167 565.5,384.833 565.5,399.5 Z"/></g>
<g><path style="opacity:1" fill="#284fff" d="M 1590.5,399.5 C 1585.5,399.5 1580.5,399.5 1575.5,399.5C 1529.67,390.507 1500.17,363.507 1487,318.5C 1486.15,314.531 1485.48,310.531 1485,306.5C 1484.33,249.5 1484.33,192.5 1485,135.5C 1498.97,120.529 1513.3,105.862 1528,91.5C 1528.5,124.165 1528.67,156.832 1528.5,189.5C 1548.83,189.5 1569.17,189.5 1589.5,189.5C 1589.5,204.167 1589.5,218.833 1589.5,233.5C 1569.17,233.5 1548.83,233.5 1528.5,233.5C 1528.33,256.502 1528.5,279.502 1529,302.5C 1535.82,336.146 1556.32,353.813 1590.5,355.5C 1590.5,370.167 1590.5,384.833 1590.5,399.5 Z"/></g>
<g><path style="opacity:1" fill="#284fff" d="M 122.5,399.5 C 112.5,399.5 102.5,399.5 92.5,399.5C 48.1049,390.867 19.2715,364.867 6,321.5C -3.54318,271.452 12.6235,232.286 54.5,204C 79.3878,190.342 105.721,186.508 133.5,192.5C 130.167,206.833 126.833,221.167 123.5,235.5C 89.6091,229.86 65.4424,242.527 51,273.5C 41.5924,307.969 52.4257,333.802 83.5,351C 116.625,361.85 142.459,352.683 161,323.5C 165.69,314.405 168.024,304.738 168,294.5C 168.333,227.167 168.667,159.833 169,92.5C 183,106.5 197,120.5 211,134.5C 211.667,193.167 211.667,251.833 211,310.5C 201.329,360.004 171.829,389.67 122.5,399.5 Z"/></g>
<g><path style="opacity:1" fill="#284fff" d="M 919.5,399.5 C 909.5,399.5 899.5,399.5 889.5,399.5C 833.586,386.908 803.919,351.908 800.5,294.5C 802.945,248.588 824.945,216.088 866.5,197C 887.427,189.534 908.761,188.034 930.5,192.5C 927.659,206.864 924.659,221.197 921.5,235.5C 894.705,230.152 872.872,238.152 856,259.5C 838.121,289.727 841.621,317.227 866.5,342C 884.645,356.046 904.645,359.379 926.5,352C 948.046,342.737 960.879,326.571 965,303.5C 965.333,233.167 965.667,162.833 966,92.5C 980.029,106.863 994.362,120.863 1009,134.5C 1009.67,192.167 1009.67,249.833 1009,307.5C 1002.25,352.25 977.414,381.75 934.5,396C 929.354,397.125 924.354,398.291 919.5,399.5 Z"/></g>
<g><path style="opacity:1" fill="#284fff" d="M 443.5,399.5 C 428.833,399.5 414.167,399.5 399.5,399.5C 399.667,361.499 399.5,323.499 399,285.5C 391.444,254.11 371.61,236.777 339.5,233.5C 302.365,237.635 282.031,258.302 278.5,295.5C 279.747,318.512 290.081,336.012 309.5,348C 315.527,351.181 321.86,353.514 328.5,355C 337.44,355.352 346.273,355.518 355,355.5C 358.486,369.444 361.653,383.444 364.5,397.5C 359.609,397.532 354.943,398.199 350.5,399.5C 341.833,399.5 333.167,399.5 324.5,399.5C 271.897,388.362 242.064,356.028 235,302.5C 233.904,252.961 255.737,217.794 300.5,197C 347.011,181.431 386.845,191.598 420,227.5C 432.573,243.323 440.239,261.323 443,281.5C 443.5,320.832 443.667,360.165 443.5,399.5 Z"/></g>
<g><path style="opacity:1" fill="#284fff" d="M 786.5,399.5 C 771.833,399.5 757.167,399.5 742.5,399.5C 742.667,362.165 742.5,324.832 742,287.5C 735.304,254.808 715.304,236.808 682,233.5C 641.66,238.839 621.66,261.839 622,302.5C 627.156,330.657 643.656,348.157 671.5,355C 680.244,355.332 688.91,355.499 697.5,355.5C 701.149,369.431 704.483,383.431 707.5,397.5C 702.609,397.532 697.943,398.199 693.5,399.5C 684.833,399.5 676.167,399.5 667.5,399.5C 616.037,388.868 586.203,357.535 578,305.5C 575.204,263.264 591.037,230.098 625.5,206C 663.171,184.082 700.837,184.082 738.5,206C 765.904,224.625 781.738,250.458 786,283.5C 786.5,322.165 786.667,360.832 786.5,399.5 Z"/></g>
<g><path style="opacity:1" fill="#284fff" d="M 1151.5,399.5 C 1141.5,399.5 1131.5,399.5 1121.5,399.5C 1079.75,391.59 1051.58,367.59 1037,327.5C 1024.14,275.42 1039.64,234.253 1083.5,204C 1118.83,184.667 1154.17,184.667 1189.5,204C 1236.41,236.392 1251.24,279.892 1234,334.5C 1217.68,370.405 1190.18,392.071 1151.5,399.5 Z M 1135.5,233.5 C 1170.01,236.181 1190.51,254.514 1197,288.5C 1198.33,318.357 1185.49,339.524 1158.5,352C 1123.64,361.484 1097.81,350.317 1081,318.5C 1070.75,287.238 1078.92,262.072 1105.5,243C 1114.9,237.475 1124.9,234.309 1135.5,233.5 Z"/></g>
<g><path style="opacity:1" fill="#284fff" d="M 1469.5,399.5 C 1454.83,399.5 1440.17,399.5 1425.5,399.5C 1425.67,363.165 1425.5,326.832 1425,290.5C 1419.58,255.911 1399.41,236.911 1364.5,233.5C 1334.46,236.039 1314.96,251.706 1306,280.5C 1300.59,316.855 1315.09,341.355 1349.5,354C 1359.8,355.832 1370.14,355.998 1380.5,354.5C 1383.44,368.445 1386.78,382.278 1390.5,396C 1385.85,397.491 1381.18,398.658 1376.5,399.5C 1367.5,399.5 1358.5,399.5 1349.5,399.5C 1299.98,388.81 1270.48,358.477 1261,308.5C 1257.27,255.098 1279.77,217.598 1328.5,196C 1375.34,181.747 1414.84,192.914 1447,229.5C 1460.24,246.537 1467.57,265.87 1469,287.5C 1469.5,324.832 1469.67,362.165 1469.5,399.5 Z"/></g>
</svg>
