<svg width="17" height="17" viewBox="0 0 17 17" fill="none" xmlns="http://www.w3.org/2000/svg">
<path d="M10.9707 8.84973L16.2732 3.54573C16.4165 3.40736 16.5308 3.24184 16.6094 3.05884C16.688 2.87583 16.7294 2.679 16.7311 2.47983C16.7328 2.28066 16.6949 2.08314 16.6195 1.8988C16.544 1.71445 16.4327 1.54698 16.2918 1.40614C16.151 1.2653 15.9835 1.15392 15.7992 1.0785C15.6148 1.00308 15.4173 0.965123 15.2181 0.966854C15.019 0.968584 14.8221 1.00996 14.6391 1.08858C14.4561 1.16719 14.2906 1.28146 14.1522 1.42473L8.84823 6.72723L3.54573 1.42473C3.40736 1.28146 3.24184 1.16719 3.05884 1.08858C2.87583 1.00996 2.679 0.968584 2.47983 0.966854C2.28066 0.965123 2.08314 1.00308 1.8988 1.0785C1.71445 1.15392 1.54698 1.2653 1.40614 1.40614C1.2653 1.54698 1.15392 1.71445 1.0785 1.8988C1.00308 2.08314 0.965123 2.28066 0.966854 2.47983C0.968584 2.679 1.00996 2.87583 1.08858 3.05884C1.16719 3.24184 1.28146 3.40736 1.42473 3.54573L6.72723 8.84823L1.42473 14.1522C1.28146 14.2906 1.16719 14.4561 1.08858 14.6391C1.00996 14.8221 0.968584 15.019 0.966854 15.2181C0.965123 15.4173 1.00308 15.6148 1.0785 15.7992C1.15392 15.9835 1.2653 16.151 1.40614 16.2918C1.54698 16.4327 1.71445 16.544 1.8988 16.6195C2.08314 16.6949 2.28066 16.7328 2.47983 16.7311C2.679 16.7294 2.87583 16.688 3.05884 16.6094C3.24184 16.5308 3.40736 16.4165 3.54573 16.2732L8.84823 10.9707L14.1522 16.2732C14.2906 16.4165 14.4561 16.5308 14.6391 16.6094C14.8221 16.688 15.019 16.7294 15.2181 16.7311C15.4173 16.7328 15.6148 16.6949 15.7992 16.6195C15.9835 16.544 16.151 16.4327 16.2918 16.2918C16.4327 16.151 16.544 15.9835 16.6195 15.7992C16.6949 15.6148 16.7328 15.4173 16.7311 15.2181C16.7294 15.019 16.688 14.8221 16.6094 14.6391C16.5308 14.4561 16.4165 14.2906 16.2732 14.1522L10.9707 8.84823V8.84973Z" fill="#C8CCD2"/>
</svg>