<?xml version="1.0" encoding="UTF-8"?>
<!DOCTYPE svg PUBLIC "-//W3C//DTD SVG 1.1//EN" "http://www.w3.org/Graphics/SVG/1.1/DTD/svg11.dtd">
<svg xmlns="http://www.w3.org/2000/svg" version="1.1" width="7105px" height="921px" style="shape-rendering:geometricPrecision; text-rendering:geometricPrecision; image-rendering:optimizeQuality; fill-rule:evenodd; clip-rule:evenodd" xmlns:xlink="http://www.w3.org/1999/xlink">
<g><path style="opacity:1" fill="#252625" d="M 1506.5,-0.5 C 1507.17,-0.5 1507.83,-0.5 1508.5,-0.5C 1508.5,97.8333 1508.5,196.167 1508.5,294.5C 1568.83,294.5 1629.17,294.5 1689.5,294.5C 1689.5,338.167 1689.5,381.833 1689.5,425.5C 1629.17,425.5 1568.83,425.5 1508.5,425.5C 1508.04,493.184 1508.54,560.851 1510,628.5C 1520.76,698.24 1558.26,747.406 1622.5,776C 1644.93,785.186 1668.26,789.686 1692.5,789.5C 1692.5,833.167 1692.5,876.833 1692.5,920.5C 1684.5,920.5 1676.5,920.5 1668.5,920.5C 1571.68,910.022 1494.18,866.022 1436,788.5C 1400.78,738.855 1381.45,683.522 1378,622.5C 1377.33,458.167 1377.33,293.833 1378,129.5C 1421.4,86.604 1464.23,43.2707 1506.5,-0.5 Z"/></g>
<g><path style="opacity:1" fill="#252625" d="M 4583.5,-0.5 C 4584.5,-0.5 4585.5,-0.5 4586.5,-0.5C 4586.5,97.8333 4586.5,196.167 4586.5,294.5C 4646.83,294.5 4707.17,294.5 4767.5,294.5C 4767.5,338.167 4767.5,381.833 4767.5,425.5C 4707.17,425.5 4646.83,425.5 4586.5,425.5C 4586.33,491.834 4586.5,558.168 4587,624.5C 4599.12,706.283 4644.62,759.45 4723.5,784C 4738.92,787.991 4754.58,789.824 4770.5,789.5C 4770.5,833.167 4770.5,876.833 4770.5,920.5C 4762.5,920.5 4754.5,920.5 4746.5,920.5C 4656.36,911.019 4582.2,871.685 4524,802.5C 4484.31,752.463 4461.64,695.463 4456,631.5C 4455.33,464.167 4455.33,296.833 4456,129.5C 4496.97,87.5276 4538.31,45.8609 4580,4.5C 4581,2.67694 4582.16,1.01027 4583.5,-0.5 Z"/></g>
<g><path style="opacity:1" fill="#252625" d="M 5213.5,920.5 C 5169.83,920.5 5126.17,920.5 5082.5,920.5C 5082.33,657.5 5082.5,394.5 5083,131.5C 5125.65,87.6806 5168.82,44.3473 5212.5,1.5C 5213.5,307.833 5213.83,614.166 5213.5,920.5 Z"/></g>
<g><path style="opacity:1" fill="#252625" d="M 347.5,920.5 C 331.5,920.5 315.5,920.5 299.5,920.5C 187.192,908.615 103.025,853.948 47,756.5C 6.91587,678.16 -0.417461,596.827 25,512.5C 60.8232,408.677 130.99,339.844 235.5,306C 272.823,295.334 310.823,291.668 349.5,295C 366.169,297.215 382.836,299.381 399.5,301.5C 390.089,344.22 380.422,386.887 370.5,429.5C 295.269,414.299 232.436,435.299 182,492.5C 141.224,546.152 131.224,605.152 152,669.5C 180.623,738.747 232.123,778.58 306.5,789C 380.076,792.96 437.576,764.793 479,704.5C 495.952,677.641 505.285,648.308 507,616.5C 507.333,412.167 507.667,207.833 508,3.5C 551.333,46.1667 594.667,88.8333 638,131.5C 638.667,294.5 638.667,457.5 638,620.5C 633.325,706.331 600.158,778.831 538.5,838C 484.157,886.737 420.49,914.237 347.5,920.5 Z"/></g>
<g><path style="opacity:1" fill="#252625" d="M 2741.5,920.5 C 2725.5,920.5 2709.5,920.5 2693.5,920.5C 2595.01,910.852 2516.84,866.185 2459,786.5C 2403.05,701.157 2389.71,609.49 2419,511.5C 2455.75,407.079 2526.92,338.245 2632.5,305C 2668.58,295.192 2705.25,291.858 2742.5,295C 2759.49,297.308 2776.49,299.475 2793.5,301.5C 2783.94,344.123 2773.94,386.623 2763.5,429C 2688.09,414.469 2625.25,435.969 2575,493.5C 2535.21,546.244 2525.21,604.244 2545,667.5C 2571.56,734.702 2620.39,774.868 2691.5,788C 2760.64,795.163 2817.47,772.33 2862,719.5C 2883.49,691.84 2896.16,660.506 2900,625.5C 2900.17,418.166 2900.67,210.833 2901.5,3.5C 2944.82,45.6522 2987.99,87.9855 3031,130.5C 3031.67,298.167 3031.67,465.833 3031,633.5C 3021.27,730.839 2977.1,808.005 2898.5,865C 2850.95,897.126 2798.62,915.626 2741.5,920.5 Z"/></g>
<g><path style="opacity:1" fill="#252625" d="M 6292.5,920.5 C 6276.5,920.5 6260.5,920.5 6244.5,920.5C 6148.61,911.148 6071.78,868.148 6014,791.5C 5979.49,743.106 5960.16,689.106 5956,629.5C 5955.33,463.5 5955.33,297.5 5956,131.5C 5999.03,88.804 6042.36,46.4707 6086,4.5C 6086.33,210.5 6086.67,416.5 6087,622.5C 6095.42,691.538 6130.59,741.704 6192.5,773C 6263.18,802.188 6328.18,792.855 6387.5,745C 6445.68,690.108 6463.18,624.275 6440,547.5C 6413.69,481.915 6365.86,442.082 6296.5,428C 6271.69,424.51 6247.02,425.343 6222.5,430.5C 6212.82,388.431 6202.82,346.431 6192.5,304.5C 6304.82,279.326 6403.16,305.493 6487.5,383C 6571.73,471.057 6599.23,574.557 6570,693.5C 6536.69,799.479 6467.52,870.645 6362.5,907C 6339.49,913.904 6316.15,918.404 6292.5,920.5 Z"/></g>
<g><path style="opacity:1" fill="#252625" d="M 7080.5,293.5 C 7084.5,293.5 7088.5,293.5 7092.5,293.5C 7094.29,338.494 7095.96,383.494 7097.5,428.5C 7010.43,434.073 6952.59,478.073 6924,560.5C 6921.36,570.035 6919.36,579.702 6918,589.5C 6919.21,696.211 6879.05,783.378 6797.5,851C 6739.88,896.375 6674.22,919.208 6600.5,919.5C 6600.5,874.5 6600.5,829.5 6600.5,784.5C 6662.77,782.95 6712.27,757.284 6749,707.5C 6762.93,687.072 6772.59,664.738 6778,640.5C 6780.39,612.151 6783.05,583.818 6786,555.5C 6804.37,458.538 6855.54,384.705 6939.5,334C 6983.36,309.211 7030.36,295.711 7080.5,293.5 Z"/></g>
<g><path style="opacity:1" fill="#252625" d="M 1331.5,920.5 C 1287.83,920.5 1244.17,920.5 1200.5,920.5C 1200.67,810.833 1200.5,701.166 1200,591.5C 1191.77,522.643 1156.94,472.476 1095.5,441C 1017.94,409.286 948.773,422.119 888,479.5C 844.335,527.473 828.669,583.473 841,647.5C 857.351,709.711 895.184,753.211 954.5,778C 990.199,790.76 1026.53,792.927 1063.5,784.5C 1074.09,826.429 1084.42,868.429 1094.5,910.5C 1090.09,912.407 1085.43,913.574 1080.5,914C 1064.7,916.265 1049.03,918.432 1033.5,920.5C 1020.83,920.5 1008.17,920.5 995.5,920.5C 898.431,910.522 820.931,866.522 763,788.5C 706.276,704.485 691.61,613.485 719,515.5C 749.145,423.693 808.312,358.193 896.5,319C 979.768,285.817 1062.77,286.483 1145.5,321C 1244.27,367.466 1304.77,444.299 1327,551.5C 1328.92,562.764 1330.25,574.097 1331,585.5C 1331.5,697.166 1331.67,808.833 1331.5,920.5 Z"/></g>
<g><path style="opacity:1" fill="#252625" d="M 2360.5,920.5 C 2316.83,920.5 2273.17,920.5 2229.5,920.5C 2229.67,812.166 2229.5,703.833 2229,595.5C 2220.12,514.638 2177.62,460.138 2101.5,432C 2028.49,412.567 1965.66,429.734 1913,483.5C 1866.11,539.294 1854.11,601.96 1877,671.5C 1901.39,730.229 1944.23,768.063 2005.5,785C 2034.42,791.135 2063.25,790.968 2092,784.5C 2102.5,824.975 2112.5,865.641 2122,906.5C 2122.67,908.167 2122.67,909.833 2122,911.5C 2102.16,915.119 2082.32,918.119 2062.5,920.5C 2049.5,920.5 2036.5,920.5 2023.5,920.5C 1926.3,910.164 1848.8,865.831 1791,787.5C 1732.22,698.935 1719.22,603.935 1752,502.5C 1790.19,402.81 1860.36,337.31 1962.5,306C 2082.2,277.044 2186.03,305.21 2274,390.5C 2322.84,442.862 2351.17,504.862 2359,576.5C 2360.47,691.152 2360.97,805.819 2360.5,920.5 Z"/></g>
<g><path style="opacity:1" fill="#252625" d="M 3400.5,294.5 C 3508.91,293.795 3596.41,335.795 3663,420.5C 3727.24,510.859 3741.91,608.859 3707,714.5C 3662.92,823.232 3583.42,890.066 3468.5,915C 3359.44,931.864 3265.61,902.031 3187,825.5C 3113.4,744.457 3086.73,649.79 3107,541.5C 3129.96,443.903 3185.79,372.07 3274.5,326C 3314.44,306.784 3356.44,296.284 3400.5,294.5 Z M 3404.5,425.5 C 3470.31,425.32 3522.81,451.32 3562,503.5C 3602.24,566.94 3604.91,631.94 3570,698.5C 3537.62,750.628 3490.79,780.461 3429.5,788C 3364.69,791.965 3311.19,769.465 3269,720.5C 3231.28,670.907 3220.62,615.907 3237,555.5C 3259.8,489.037 3305.3,447.203 3373.5,430C 3383.91,427.966 3394.24,426.466 3404.5,425.5 Z"/></g>
<g><path style="opacity:1" fill="#252625" d="M 4409.5,920.5 C 4365.83,920.5 4322.17,920.5 4278.5,920.5C 4278.67,813.833 4278.5,707.166 4278,600.5C 4272.19,525.668 4235.69,471.835 4168.5,439C 4098.55,411.771 4034.55,421.771 3976.5,469C 3922.04,521.052 3903.54,583.885 3921,657.5C 3946.91,733.739 3999.74,777.572 4079.5,789C 4100.1,790.665 4120.43,789.165 4140.5,784.5C 4151.36,826.125 4161.7,867.958 4171.5,910C 4171.36,910.772 4171.02,911.439 4170.5,912C 4150.72,915.094 4131.06,917.928 4111.5,920.5C 4098.5,920.5 4085.5,920.5 4072.5,920.5C 3973.29,909.994 3894.79,864.327 3837,783.5C 3780.88,696.481 3768.55,603.481 3800,504.5C 3842.44,393.725 3921.61,325.558 4037.5,300C 4153.17,281.554 4251,314.72 4331,399.5C 4375.77,451.072 4401.44,511.072 4408,579.5C 4409.46,693.155 4409.96,806.822 4409.5,920.5 Z"/></g>
<g><path style="opacity:1" fill="#252625" d="M 5910.5,920.5 C 5866.83,920.5 5823.17,920.5 5779.5,920.5C 5779.67,812.499 5779.5,704.499 5779,596.5C 5773.4,531.314 5742.9,481.814 5687.5,448C 5621.56,413.31 5557.22,415.977 5494.5,456C 5431.78,503.457 5406.61,566.291 5419,644.5C 5433.61,704.098 5468.44,747.265 5523.5,774C 5561.85,790.553 5601.35,794.053 5642,784.5C 5652.62,825.985 5662.79,867.652 5672.5,909.5C 5672.39,910.442 5672.06,911.275 5671.5,912C 5651.74,915.18 5632.07,918.014 5612.5,920.5C 5599.5,920.5 5586.5,920.5 5573.5,920.5C 5479.8,910.407 5403.97,868.407 5346,794.5C 5282.25,703.591 5267.92,605.258 5303,499.5C 5340.85,402.652 5409.35,338.485 5508.5,307C 5612.31,279.563 5706.97,297.896 5792.5,362C 5860.15,417.44 5898.98,488.94 5909,576.5C 5910.47,691.153 5910.97,805.82 5910.5,920.5 Z"/></g>
</svg>
