<?xml version="1.0" encoding="UTF-8"?>
<!DOCTYPE svg PUBLIC "-//W3C//DTD SVG 1.1//EN" "http://www.w3.org/Graphics/SVG/1.1/DTD/svg11.dtd">
<svg xmlns="http://www.w3.org/2000/svg" version="1.1" width="512px" height="512px" style="shape-rendering:geometricPrecision; text-rendering:geometricPrecision; image-rendering:optimizeQuality; fill-rule:evenodd; clip-rule:evenodd" xmlns:xlink="http://www.w3.org/1999/xlink">
<g><path style="opacity:1" fill="#d3e4f1" d="M 232.5,-0.5 C 247.833,-0.5 263.167,-0.5 278.5,-0.5C 368.144,10.3879 435.644,54.7213 481,132.5C 497.695,163.971 507.861,197.304 511.5,232.5C 511.5,247.833 511.5,263.167 511.5,278.5C 500.612,368.144 456.279,435.644 378.5,481C 347.029,497.695 313.696,507.861 278.5,511.5C 263.167,511.5 247.833,511.5 232.5,511.5C 142.856,500.612 75.3562,456.279 30,378.5C 13.3053,347.029 3.1386,313.696 -0.5,278.5C -0.5,263.167 -0.5,247.833 -0.5,232.5C 10.3875,142.857 54.7208,75.3573 132.5,30C 163.971,13.3053 197.304,3.1386 232.5,-0.5 Z"/></g>
<g><path style="opacity:1" fill="#2a51fe" d="M 108.5,101.5 C 224.36,99.1616 312.526,146.828 373,244.5C 400.197,293.674 412.197,346.341 409,402.5C 407.878,404.624 406.378,406.457 404.5,408C 396.27,409.604 387.937,409.937 379.5,409C 377,407.833 375.167,406 374,403.5C 377.351,312.389 343.184,239.222 271.5,184C 222.027,149.689 167.027,134.023 106.5,137C 104.19,135.363 102.69,133.196 102,130.5C 101.333,123.167 101.333,115.833 102,108.5C 103.694,105.642 105.861,103.309 108.5,101.5 Z"/></g>
<g><path style="opacity:1" fill="#2a51fe" d="M 108.5,173.5 C 197.4,170.355 264.9,206.355 311,281.5C 331.355,319.286 340.021,359.619 337,402.5C 335.878,404.624 334.378,406.457 332.5,408C 324.27,409.604 315.937,409.937 307.5,409C 305.714,408.215 304.214,407.049 303,405.5C 306.2,344.064 285.367,292.564 240.5,251C 201.392,220.043 156.725,206.043 106.5,209C 104.19,207.363 102.69,205.196 102,202.5C 101.333,195.167 101.333,187.833 102,180.5C 103.694,177.642 105.861,175.309 108.5,173.5 Z"/></g>
<g><path style="opacity:1" fill="#2b51fe" d="M 108.5,245.5 C 168.468,241.567 214.634,264.567 247,314.5C 262.212,341.891 268.212,371.224 265,402.5C 263.878,404.624 262.378,406.457 260.5,408C 252.27,409.604 243.937,409.937 235.5,409C 233.714,408.215 232.214,407.049 231,405.5C 229.711,394.597 229.044,383.597 229,372.5C 219.768,320.293 188.934,290.127 136.5,282C 126.5,281.667 116.5,281.333 106.5,281C 105.333,279.833 104.167,278.667 103,277.5C 101.428,269.245 101.095,260.911 102,252.5C 103.694,249.642 105.861,247.309 108.5,245.5 Z"/></g>
<g><path style="opacity:1" fill="#2a50fe" d="M 130.5,336.5 C 152.535,335.088 167.035,344.754 174,365.5C 176.059,387.576 166.559,401.742 145.5,408C 123.299,410.995 109.132,401.829 103,380.5C 100.286,358.238 109.453,343.571 130.5,336.5 Z"/></g>
</svg>
