<?xml version="1.0" encoding="UTF-8"?>
<!DOCTYPE svg PUBLIC "-//W3C//DTD SVG 1.1//EN" "http://www.w3.org/Graphics/SVG/1.1/DTD/svg11.dtd">
<svg xmlns="http://www.w3.org/2000/svg" version="1.1" width="512px" height="512px" style="shape-rendering:geometricPrecision; text-rendering:geometricPrecision; image-rendering:optimizeQuality; fill-rule:evenodd; clip-rule:evenodd" xmlns:xlink="http://www.w3.org/1999/xlink">
<g><path style="opacity:1" fill="#d3e4f1" d="M 232.5,-0.5 C 247.833,-0.5 263.167,-0.5 278.5,-0.5C 368.144,10.3879 435.644,54.7213 481,132.5C 497.695,163.971 507.861,197.304 511.5,232.5C 511.5,247.833 511.5,263.167 511.5,278.5C 500.612,368.144 456.279,435.644 378.5,481C 347.029,497.695 313.696,507.861 278.5,511.5C 263.167,511.5 247.833,511.5 232.5,511.5C 142.856,500.612 75.3562,456.279 30,378.5C 13.3053,347.029 3.1386,313.696 -0.5,278.5C -0.5,263.167 -0.5,247.833 -0.5,232.5C 10.3875,142.857 54.7208,75.3573 132.5,30C 163.971,13.3053 197.304,3.1386 232.5,-0.5 Z"/></g>
<g><path style="opacity:1" fill="#2c52fe" d="M 151.5,134.5 C 184.835,134.333 218.168,134.5 251.5,135C 258.596,143.852 265.929,152.519 273.5,161C 311.5,161.333 349.5,161.667 387.5,162C 398.445,164.276 405.612,170.776 409,181.5C 409.667,228.833 409.667,276.167 409,323.5C 406.697,334.969 399.863,341.969 388.5,344.5C 387.667,300.17 387.167,255.837 387,211.5C 383.131,196.965 373.965,187.798 359.5,184C 321.496,183.833 283.496,183.333 245.5,182.5C 240.144,176.312 234.977,169.978 230,163.5C 227.408,160.238 224.241,157.738 220.5,156C 191.835,155.5 163.169,155.333 134.5,155.5C 136.628,145.549 142.294,138.549 151.5,134.5 Z"/></g>
<g><path style="opacity:1" fill="#2850fe" d="M 119.5,166.5 C 152.502,166.333 185.502,166.5 218.5,167C 225.833,175.667 233.167,184.333 240.5,193C 278.833,193.333 317.167,193.667 355.5,194C 365.692,195.856 372.525,201.689 376,211.5C 376.667,259.833 376.667,308.167 376,356.5C 373.6,366.567 367.434,373.067 357.5,376C 278.167,376.667 198.833,376.667 119.5,376C 109.727,372.558 103.894,365.725 102,355.5C 101.333,299.167 101.333,242.833 102,186.5C 104.497,176.841 110.33,170.174 119.5,166.5 Z"/></g>
</svg>
