<?xml version="1.0" encoding="UTF-8"?>
<!DOCTYPE svg PUBLIC "-//W3C//DTD SVG 1.1//EN" "http://www.w3.org/Graphics/SVG/1.1/DTD/svg11.dtd">
<svg xmlns="http://www.w3.org/2000/svg" version="1.1" width="512px" height="512px" style="shape-rendering:geometricPrecision; text-rendering:geometricPrecision; image-rendering:optimizeQuality; fill-rule:evenodd; clip-rule:evenodd" xmlns:xlink="http://www.w3.org/1999/xlink">
<g><path style="opacity:1" fill="#d3e2ef" d="M 232.5,-0.5 C 247.833,-0.5 263.167,-0.5 278.5,-0.5C 368.144,10.3879 435.644,54.7213 481,132.5C 497.695,163.971 507.861,197.304 511.5,232.5C 511.5,247.833 511.5,263.167 511.5,278.5C 500.612,368.144 456.279,435.644 378.5,481C 347.029,497.695 313.696,507.861 278.5,511.5C 263.167,511.5 247.833,511.5 232.5,511.5C 142.856,500.612 75.3562,456.279 30,378.5C 13.3053,347.029 3.1386,313.696 -0.5,278.5C -0.5,263.167 -0.5,247.833 -0.5,232.5C 10.3875,142.857 54.7208,75.3573 132.5,30C 163.971,13.3053 197.304,3.1386 232.5,-0.5 Z"/></g>
<g><path style="opacity:1" fill="#2950fe" d="M 174.5,101.5 C 229.195,101.03 283.862,101.53 338.5,103C 378.414,110.582 401.914,134.415 409,174.5C 409.667,227.167 409.667,279.833 409,332.5C 402.703,377.797 376.87,403.297 331.5,409C 279.167,409.667 226.833,409.667 174.5,409C 131.864,401.03 107.697,375.53 102,332.5C 101.026,277.802 101.359,223.135 103,168.5C 112.559,130.77 136.392,108.437 174.5,101.5 Z"/></g>
<g><path style="opacity:1" fill="#d1e1f1" d="M 169.5,199.5 C 172.187,199.336 174.854,199.503 177.5,200C 196.929,216.092 215.762,232.925 234,250.5C 234.837,254.295 234.504,257.961 233,261.5C 215.466,278.036 197.632,294.203 179.5,310C 170.536,313.687 165.202,310.854 163.5,301.5C 163.515,299.366 164.015,297.366 165,295.5C 179.676,282.323 194.176,268.989 208.5,255.5C 194.509,242.344 180.343,229.344 166,216.5C 161.861,209.598 163.027,203.931 169.5,199.5 Z"/></g>
<g><path style="opacity:1" fill="#d3e3f1" d="M 251.5,291.5 C 281.169,291.333 310.835,291.5 340.5,292C 347.498,295.182 349.331,300.349 346,307.5C 344.786,309.049 343.286,310.215 341.5,311C 311.5,311.667 281.5,311.667 251.5,311C 245.458,307.252 243.958,302.085 247,295.5C 248.397,293.93 249.897,292.596 251.5,291.5 Z"/></g>
</svg>
