<?xml version="1.0" encoding="UTF-8"?>
<!DOCTYPE svg PUBLIC "-//W3C//DTD SVG 1.1//EN" "http://www.w3.org/Graphics/SVG/1.1/DTD/svg11.dtd">
<svg xmlns="http://www.w3.org/2000/svg" version="1.1" width="512px" height="512px" style="shape-rendering:geometricPrecision; text-rendering:geometricPrecision; image-rendering:optimizeQuality; fill-rule:evenodd; clip-rule:evenodd" xmlns:xlink="http://www.w3.org/1999/xlink">
<g><path style="opacity:1" fill="#d2e2ef" d="M 232.5,-0.5 C 247.833,-0.5 263.167,-0.5 278.5,-0.5C 368.144,10.3879 435.644,54.7213 481,132.5C 497.695,163.971 507.861,197.304 511.5,232.5C 511.5,247.833 511.5,263.167 511.5,278.5C 500.612,368.144 456.279,435.644 378.5,481C 347.029,497.695 313.696,507.861 278.5,511.5C 263.167,511.5 247.833,511.5 232.5,511.5C 142.856,500.612 75.3562,456.279 30,378.5C 13.3053,347.029 3.1386,313.696 -0.5,278.5C -0.5,263.167 -0.5,247.833 -0.5,232.5C 10.3875,142.857 54.7208,75.3573 132.5,30C 163.971,13.3053 197.304,3.1386 232.5,-0.5 Z"/></g>
<g><path style="opacity:1" fill="#2850fe" d="M 124.5,99.5 C 211.167,99.3333 297.834,99.5 384.5,100C 403.782,104.282 415.282,116.115 419,135.5C 419.667,194.833 419.667,254.167 419,313.5C 415.737,333.43 404.237,345.597 384.5,350C 297.833,350.667 211.167,350.667 124.5,350C 105.883,344.719 95.0496,332.552 92,313.5C 91.3333,254.167 91.3333,194.833 92,135.5C 95.6936,116.977 106.527,104.977 124.5,99.5 Z"/></g>
<g><path style="opacity:1" fill="#2c51fe" d="M 213.5,365.5 C 241.5,365.5 269.5,365.5 297.5,365.5C 297.5,373.167 297.5,380.833 297.5,388.5C 317.503,388.333 337.503,388.5 357.5,389C 364.666,391.834 367.166,397.001 365,404.5C 363.878,406.624 362.378,408.457 360.5,410C 325.392,411.157 290.225,411.657 255,411.5C 220.083,411.66 185.25,411.16 150.5,410C 144.272,403.953 143.938,397.62 149.5,391C 150.833,390.333 152.167,389.667 153.5,389C 173.497,388.5 193.497,388.333 213.5,388.5C 213.5,380.833 213.5,373.167 213.5,365.5 Z"/></g>
</svg>
