<?xml version="1.0" encoding="UTF-8"?>
<!DOCTYPE svg PUBLIC "-//W3C//DTD SVG 1.1//EN" "http://www.w3.org/Graphics/SVG/1.1/DTD/svg11.dtd">
<svg xmlns="http://www.w3.org/2000/svg" version="1.1" width="512px" height="512px" style="shape-rendering:geometricPrecision; text-rendering:geometricPrecision; image-rendering:optimizeQuality; fill-rule:evenodd; clip-rule:evenodd" xmlns:xlink="http://www.w3.org/1999/xlink">
<g><path style="opacity:1" fill="#d4e4f1" d="M 232.5,-0.5 C 247.833,-0.5 263.167,-0.5 278.5,-0.5C 368.144,10.3879 435.644,54.7213 481,132.5C 497.695,163.971 507.861,197.304 511.5,232.5C 511.5,247.833 511.5,263.167 511.5,278.5C 500.612,368.144 456.279,435.644 378.5,481C 347.029,497.695 313.696,507.861 278.5,511.5C 263.167,511.5 247.833,511.5 232.5,511.5C 142.856,500.612 75.3562,456.279 30,378.5C 13.3053,347.029 3.1386,313.696 -0.5,278.5C -0.5,263.167 -0.5,247.833 -0.5,232.5C 10.3875,142.857 54.7208,75.3573 132.5,30C 163.971,13.3053 197.304,3.1386 232.5,-0.5 Z"/></g>
<g><path style="opacity:1" fill="#2c51fe" d="M 203.5,131.5 C 169.833,131.5 136.167,131.5 102.5,131.5C 102.5,123.833 102.5,116.167 102.5,108.5C 103.591,105.572 105.591,103.406 108.5,102C 137.833,101.333 167.167,101.333 196.5,102C 199.196,102.69 201.363,104.19 203,106.5C 203.5,114.827 203.666,123.16 203.5,131.5 Z"/></g>
<g><path style="opacity:1" fill="#8ba5f8" d="M 102.5,108.5 C 102.5,116.167 102.5,123.833 102.5,131.5C 136.167,131.5 169.833,131.5 203.5,131.5C 169.671,132.498 135.671,132.832 101.5,132.5C 101.174,124.316 101.508,116.316 102.5,108.5 Z"/></g>
<g><path style="opacity:1" fill="#718ff9" d="M 205.5,238.5 C 205.44,239.043 205.107,239.376 204.5,239.5C 203.5,209.841 203.167,180.174 203.5,150.5C 169.833,150.5 136.167,150.5 102.5,150.5C 102.5,234.5 102.5,318.5 102.5,402.5C 101.501,318.335 101.167,234.002 101.5,149.5C 135.833,149.5 170.167,149.5 204.5,149.5C 204.169,179.338 204.502,209.005 205.5,238.5 Z"/></g>
<g><path style="opacity:1" fill="#2950fe" d="M 205.5,238.5 C 235.112,221.357 264.778,204.19 294.5,187C 299.814,185.74 303.647,187.574 306,192.5C 306.333,208.167 306.667,223.833 307,239.5C 336.916,222.126 366.749,204.626 396.5,187C 402.429,185.881 406.596,188.047 409,193.5C 409.993,263.915 409.66,334.248 408,404.5C 406.457,406.378 404.624,407.878 402.5,409C 304.5,409.667 206.5,409.667 108.5,409C 105.591,407.594 103.591,405.428 102.5,402.5C 102.5,318.5 102.5,234.5 102.5,150.5C 136.167,150.5 169.833,150.5 203.5,150.5C 203.167,180.174 203.5,209.841 204.5,239.5C 205.107,239.376 205.44,239.043 205.5,238.5 Z"/></g>
<g><path style="opacity:1" fill="#d3e4f3" d="M 192.5,300.5 C 206.171,300.333 219.837,300.5 233.5,301C 235.624,302.122 237.457,303.622 239,305.5C 239.667,320.167 239.667,334.833 239,349.5C 238.535,350.931 237.701,352.097 236.5,353C 221.593,354.633 206.593,354.967 191.5,354C 189.714,353.215 188.214,352.049 187,350.5C 185.385,336.235 185.052,321.902 186,307.5C 187.694,304.642 189.861,302.309 192.5,300.5 Z"/></g>
<g><path style="opacity:1" fill="#d3e4f3" d="M 294.5,300.5 C 308.171,300.333 321.837,300.5 335.5,301C 337.587,301.792 339.421,302.959 341,304.5C 342.633,319.073 342.966,333.74 342,348.5C 340.878,350.624 339.378,352.457 337.5,354C 322.833,354.667 308.167,354.667 293.5,354C 291.274,352.773 289.774,350.939 289,348.5C 288.333,334.5 288.333,320.5 289,306.5C 290.36,303.977 292.193,301.977 294.5,300.5 Z"/></g>
</svg>
