<?xml version="1.0" encoding="UTF-8"?>
<!DOCTYPE svg PUBLIC "-//W3C//DTD SVG 1.1//EN" "http://www.w3.org/Graphics/SVG/1.1/DTD/svg11.dtd">
<svg xmlns="http://www.w3.org/2000/svg" version="1.1" width="512px" height="512px" style="shape-rendering:geometricPrecision; text-rendering:geometricPrecision; image-rendering:optimizeQuality; fill-rule:evenodd; clip-rule:evenodd" xmlns:xlink="http://www.w3.org/1999/xlink">
<g><path style="opacity:1" fill="#d2e2ef" d="M 234.5,-0.5 C 248.5,-0.5 262.5,-0.5 276.5,-0.5C 364.803,9.21699 431.969,51.8837 478,127.5C 496.552,160.982 507.718,196.648 511.5,234.5C 511.5,248.5 511.5,262.5 511.5,276.5C 500.693,370.651 453.693,440.151 370.5,485C 340.639,499.462 309.306,508.295 276.5,511.5C 262.5,511.5 248.5,511.5 234.5,511.5C 140.312,500.679 70.8117,453.679 26,370.5C 11.5378,340.638 2.70451,309.305 -0.5,276.5C -0.5,262.5 -0.5,248.5 -0.5,234.5C 10.6196,139.575 58.2862,69.7415 142.5,25C 171.807,11.1761 202.474,2.67607 234.5,-0.5 Z"/></g>
<g><path style="opacity:1" fill="#2850fe" d="M 189.5,89.5 C 232.168,89.3333 274.835,89.5 317.5,90C 331,94.1667 339.833,103 344,116.5C 344.667,208.833 344.667,301.167 344,393.5C 340.274,407.56 331.441,416.726 317.5,421C 274.833,421.667 232.167,421.667 189.5,421C 176.14,416.308 167.64,407.142 164,393.5C 163.333,301.167 163.333,208.833 164,116.5C 168.26,103.409 176.76,94.4088 189.5,89.5 Z"/></g>
<g><path style="opacity:1" fill="#d2e2f1" d="M 228.5,119.5 C 245.503,119.333 262.503,119.5 279.5,120C 286.167,124.667 286.167,129.333 279.5,134C 262.5,134.667 245.5,134.667 228.5,134C 221.899,129.171 221.899,124.338 228.5,119.5 Z"/></g>
<g><path style="opacity:1" fill="#d1e1f1" d="M 249.5,361.5 C 262.361,360.867 268.861,366.867 269,379.5C 264.421,390.693 256.587,393.86 245.5,389C 235.381,378.208 236.715,369.041 249.5,361.5 Z"/></g>
</svg>
