<?xml version="1.0" encoding="UTF-8"?>
<!DOCTYPE svg PUBLIC "-//W3C//DTD SVG 1.1//EN" "http://www.w3.org/Graphics/SVG/1.1/DTD/svg11.dtd">
<svg xmlns="http://www.w3.org/2000/svg" version="1.1" width="512px" height="512px" style="shape-rendering:geometricPrecision; text-rendering:geometricPrecision; image-rendering:optimizeQuality; fill-rule:evenodd; clip-rule:evenodd" xmlns:xlink="http://www.w3.org/1999/xlink">
<g><path style="opacity:1" fill="#d4e4f1" d="M 232.5,-0.5 C 247.833,-0.5 263.167,-0.5 278.5,-0.5C 368.144,10.3879 435.644,54.7213 481,132.5C 497.695,163.971 507.861,197.304 511.5,232.5C 511.5,247.833 511.5,263.167 511.5,278.5C 500.612,368.144 456.279,435.644 378.5,481C 347.029,497.695 313.696,507.861 278.5,511.5C 263.167,511.5 247.833,511.5 232.5,511.5C 142.856,500.612 75.3562,456.279 30,378.5C 13.3053,347.029 3.1386,313.696 -0.5,278.5C -0.5,263.167 -0.5,247.833 -0.5,232.5C 10.3875,142.857 54.7208,75.3573 132.5,30C 163.971,13.3053 197.304,3.1386 232.5,-0.5 Z"/></g>
<g><path style="opacity:1" fill="#2950fe" d="M 166.5,117.5 C 224.834,117.333 283.168,117.5 341.5,118C 364.977,120.809 379.811,133.642 386,156.5C 386.982,182.92 386.648,209.254 385,235.5C 383.681,237.487 381.848,238.654 379.5,239C 356.169,239.5 332.836,239.667 309.5,239.5C 309.667,285.501 309.5,331.501 309,377.5C 305.674,385.493 299.841,390.659 291.5,393C 241.833,393.667 192.167,393.667 142.5,393C 133.298,390.465 127.465,384.631 125,375.5C 124.333,302.5 124.333,229.5 125,156.5C 131.007,134.988 144.841,121.988 166.5,117.5 Z"/></g>
<g><path style="opacity:1" fill="#d4e5f3" d="M 331.5,137.5 C 347.91,135.118 359.41,141.451 366,156.5C 367.466,177.767 367.966,199.1 367.5,220.5C 348.5,220.5 329.5,220.5 310.5,220.5C 310.333,199.831 310.5,179.164 311,158.5C 314.685,148.316 321.519,141.316 331.5,137.5 Z"/></g>
<g><path style="opacity:1" fill="#d2e3f3" d="M 175.5,194.5 C 202.835,194.333 230.169,194.5 257.5,195C 265.431,198.025 267.264,203.192 263,210.5C 262.097,211.701 260.931,212.535 259.5,213C 231.167,213.667 202.833,213.667 174.5,213C 170.916,211.336 169.249,208.503 169.5,204.5C 169.474,199.877 171.474,196.544 175.5,194.5 Z"/></g>
<g><path style="opacity:1" fill="#cfe0f3" d="M 176.5,245.5 C 203.502,245.333 230.502,245.5 257.5,246C 265.332,249.133 267.165,254.299 263,261.5C 261.421,263.041 259.587,264.208 257.5,265C 230.5,265.667 203.5,265.667 176.5,265C 169.518,261.787 167.685,256.62 171,249.5C 172.812,248.023 174.645,246.69 176.5,245.5 Z"/></g>
<g><path style="opacity:1" fill="#d2e4f3" d="M 174.5,297.5 C 202.835,297.333 231.169,297.5 259.5,298C 261.667,298.833 263.167,300.333 264,302.5C 266.276,309.292 264.11,313.792 257.5,316C 230.167,316.667 202.833,316.667 175.5,316C 169.458,312.252 167.958,307.085 171,300.5C 172.145,299.364 173.312,298.364 174.5,297.5 Z"/></g>
</svg>
