<?xml version="1.0" encoding="UTF-8"?>
<!DOCTYPE svg PUBLIC "-//W3C//DTD SVG 1.1//EN" "http://www.w3.org/Graphics/SVG/1.1/DTD/svg11.dtd">
<svg xmlns="http://www.w3.org/2000/svg" version="1.1" width="512px" height="512px" style="shape-rendering:geometricPrecision; text-rendering:geometricPrecision; image-rendering:optimizeQuality; fill-rule:evenodd; clip-rule:evenodd" xmlns:xlink="http://www.w3.org/1999/xlink">
<g><path style="opacity:1" fill="#d4e4f1" d="M 232.5,-0.5 C 247.833,-0.5 263.167,-0.5 278.5,-0.5C 368.144,10.3879 435.644,54.7213 481,132.5C 497.695,163.971 507.861,197.304 511.5,232.5C 511.5,247.833 511.5,263.167 511.5,278.5C 500.612,368.144 456.279,435.644 378.5,481C 347.029,497.695 313.696,507.861 278.5,511.5C 263.167,511.5 247.833,511.5 232.5,511.5C 142.856,500.612 75.3562,456.279 30,378.5C 13.3053,347.029 3.1386,313.696 -0.5,278.5C -0.5,263.167 -0.5,247.833 -0.5,232.5C 10.3875,142.857 54.7208,75.3573 132.5,30C 163.971,13.3053 197.304,3.1386 232.5,-0.5 Z"/></g>
<g><path style="opacity:1" fill="#2a50fe" d="M 169.5,121.5 C 198.289,119.458 212.123,132.791 211,161.5C 204.639,180.436 191.472,188.936 171.5,187C 151.435,180.383 142.935,166.55 146,145.5C 150.018,133.65 157.851,125.65 169.5,121.5 Z"/></g>
<g><path style="opacity:1" fill="#2a51fe" d="M 323.5,121.5 C 343.86,118.587 357.694,126.587 365,145.5C 368.055,166.575 359.555,180.409 339.5,187C 319.521,189.016 306.354,180.516 300,161.5C 297.329,141.824 305.163,128.491 323.5,121.5 Z"/></g>
<g><path style="opacity:1" fill="#3054fe" d="M 243.5,180.5 C 257.894,179.549 271.894,181.382 285.5,186C 283,188.5 280.5,191 278,193.5C 266.024,190.687 253.857,189.854 241.5,191C 238.57,191.606 235.737,192.44 233,193.5C 230.5,191 228,188.5 225.5,186C 231.373,183.535 237.373,181.702 243.5,180.5 Z"/></g>
<g><path style="opacity:1" fill="#2950fe" d="M 147.5,185.5 C 161.464,196.841 177.131,199.674 194.5,194C 199.59,192.042 204.09,189.208 208,185.5C 218.333,191.833 226.667,200.167 233,210.5C 238.494,226.675 233.328,237.842 217.5,244C 191.5,244.667 165.5,244.667 139.5,244C 125.099,239.378 119.266,229.544 122,214.5C 127.533,202.139 136.033,192.472 147.5,185.5 Z"/></g>
<g><path style="opacity:1" fill="#2950fe" d="M 302.5,185.5 C 317.25,197.236 333.583,199.736 351.5,193C 355.278,190.888 358.778,188.388 362,185.5C 374.447,191.947 383.447,201.614 389,214.5C 391.539,228.935 386.039,238.768 372.5,244C 345.833,244.667 319.167,244.667 292.5,244C 279.422,238.916 273.922,229.416 276,215.5C 281.384,202.361 290.217,192.361 302.5,185.5 Z"/></g>
<g><path style="opacity:1" fill="#2c52fe" d="M 165.5,254.5 C 168.898,254.18 172.232,254.513 175.5,255.5C 170.708,287.125 180.041,313.791 203.5,335.5C 201.667,337.833 199.833,340.167 198,342.5C 171.316,319.144 160.483,289.811 165.5,254.5 Z"/></g>
<g><path style="opacity:1" fill="#3054fe" d="M 335.5,254.5 C 338.833,254.5 342.167,254.5 345.5,254.5C 350.166,289.679 339.333,319.012 313,342.5C 311.039,340.072 309.206,337.572 307.5,335C 331.229,313.319 340.562,286.486 335.5,254.5 Z"/></g>
<g><path style="opacity:1" fill="#2a50fe" d="M 247.5,266.5 C 274.872,264.712 288.372,277.378 288,304.5C 285.738,319.43 277.238,328.596 262.5,332C 242.747,334.377 229.58,326.21 223,307.5C 220.439,287.271 228.606,273.604 247.5,266.5 Z"/></g>
<g><path style="opacity:1" fill="#2950fe" d="M 225.5,330.5 C 244.965,346.075 264.798,346.408 285,331.5C 296.321,337.487 304.987,346.154 311,357.5C 315.175,372.658 310.009,383.158 295.5,389C 267.438,389.975 239.438,389.641 211.5,388C 200.984,381.797 196.817,372.63 199,360.5C 204.842,347.826 213.676,337.826 225.5,330.5 Z"/></g>
</svg>
