<?xml version="1.0" encoding="UTF-8"?>
<!DOCTYPE svg PUBLIC "-//W3C//DTD SVG 1.1//EN" "http://www.w3.org/Graphics/SVG/1.1/DTD/svg11.dtd">
<svg xmlns="http://www.w3.org/2000/svg" version="1.1" width="512px" height="512px" style="shape-rendering:geometricPrecision; text-rendering:geometricPrecision; image-rendering:optimizeQuality; fill-rule:evenodd; clip-rule:evenodd" xmlns:xlink="http://www.w3.org/1999/xlink">
<g><path style="opacity:1" fill="#d4e4f1" d="M 232.5,-0.5 C 247.833,-0.5 263.167,-0.5 278.5,-0.5C 368.144,10.3879 435.644,54.7213 481,132.5C 497.695,163.971 507.861,197.304 511.5,232.5C 511.5,247.833 511.5,263.167 511.5,278.5C 500.612,368.144 456.279,435.644 378.5,481C 347.029,497.695 313.696,507.861 278.5,511.5C 263.167,511.5 247.833,511.5 232.5,511.5C 142.856,500.612 75.3562,456.279 30,378.5C 13.3053,347.029 3.1386,313.696 -0.5,278.5C -0.5,263.167 -0.5,247.833 -0.5,232.5C 10.3875,142.857 54.7208,75.3573 132.5,30C 163.971,13.3053 197.304,3.1386 232.5,-0.5 Z"/></g>
<g><path style="opacity:1" fill="#2850fe" d="M 212.5,120.5 C 241.169,120.333 269.835,120.5 298.5,121C 299.5,121.5 300.5,122 301.5,122.5C 332.879,175.421 363.879,228.587 394.5,282C 360.833,282.667 327.167,282.667 293.5,282C 265.126,232.751 236.626,183.585 208,134.5C 205.214,128.414 206.714,123.747 212.5,120.5 Z"/></g>
<g><path style="opacity:1" fill="#2950fe" d="M 193.5,148.5 C 211.387,176.614 228.387,205.447 244.5,235C 215.683,285.157 186.85,335.323 158,385.5C 151.833,392.412 146.167,392.079 141,384.5C 128.588,360.674 115.921,337.008 103,313.5C 102.333,310.833 102.333,308.167 103,305.5C 133.178,253.139 163.345,200.806 193.5,148.5 Z"/></g>
<g><path style="opacity:1" fill="#2850fe" d="M 227.5,300.5 C 285.834,300.333 344.168,300.5 402.5,301C 406.833,302.161 408.833,304.995 408.5,309.5C 407.858,313.79 406.358,317.79 404,321.5C 391.88,344.242 379.38,366.742 366.5,389C 303.224,390.656 239.891,390.989 176.5,390C 193.756,360.261 210.756,330.428 227.5,300.5 Z"/></g>
</svg>
