<?xml version="1.0" encoding="UTF-8"?>
<!DOCTYPE svg PUBLIC "-//W3C//DTD SVG 1.1//EN" "http://www.w3.org/Graphics/SVG/1.1/DTD/svg11.dtd">
<svg xmlns="http://www.w3.org/2000/svg" version="1.1" width="512px" height="512px" style="shape-rendering:geometricPrecision; text-rendering:geometricPrecision; image-rendering:optimizeQuality; fill-rule:evenodd; clip-rule:evenodd" xmlns:xlink="http://www.w3.org/1999/xlink">
<g><path style="opacity:1" fill="#d3e4f1" d="M 232.5,-0.5 C 247.833,-0.5 263.167,-0.5 278.5,-0.5C 368.144,10.3879 435.644,54.7213 481,132.5C 497.695,163.971 507.861,197.304 511.5,232.5C 511.5,247.833 511.5,263.167 511.5,278.5C 500.612,368.144 456.279,435.644 378.5,481C 347.029,497.695 313.696,507.861 278.5,511.5C 263.167,511.5 247.833,511.5 232.5,511.5C 142.856,500.612 75.3562,456.279 30,378.5C 13.3053,347.029 3.1386,313.696 -0.5,278.5C -0.5,263.167 -0.5,247.833 -0.5,232.5C 10.3875,142.857 54.7208,75.3573 132.5,30C 163.971,13.3053 197.304,3.1386 232.5,-0.5 Z"/></g>
<g><path style="opacity:1" fill="#2950fe" d="M 159.5,101.5 C 194.837,101.687 217.337,118.687 227,152.5C 227.913,164.007 227.247,175.34 225,186.5C 258.167,219.667 291.333,252.833 324.5,286C 344.061,280.904 362.728,283.237 380.5,293C 405.189,310.909 413.689,334.742 406,364.5C 402.229,368.788 397.729,369.621 392.5,367C 383.833,358.333 375.167,349.667 366.5,341C 356.708,335.383 347.875,336.55 340,344.5C 335.133,352.087 335.466,359.42 341,366.5C 350.364,375.53 359.364,384.863 368,394.5C 369.193,403.649 365.027,408.149 355.5,408C 328.079,411.424 306.913,401.591 292,378.5C 283.153,361.233 281.153,343.233 286,324.5C 252.833,291.333 219.667,258.167 186.5,225C 178.747,226.095 170.913,226.928 163,227.5C 130.664,224.503 110.664,207.169 103,175.5C 101.927,165.694 102.594,156.028 105,146.5C 108.771,142.212 113.271,141.379 118.5,144C 128.231,154.4 138.564,164.067 149.5,173C 166.159,175.335 174.325,168.169 174,151.5C 173,149.5 172,147.5 171,145.5C 161.303,136.137 151.97,126.47 143,116.5C 141.557,111.788 142.723,107.955 146.5,105C 150.848,103.417 155.182,102.251 159.5,101.5 Z"/></g>
<g><path style="opacity:1" fill="#2a51fe" d="M 382.5,101.5 C 385.425,101.46 388.091,102.293 390.5,104C 396,109.5 401.5,115 407,120.5C 409,124.5 409,128.5 407,132.5C 397.292,148.75 387.459,164.917 377.5,181C 373.426,184.226 369.426,184.226 365.5,181C 363.599,178.387 361.265,176.72 358.5,176C 338.667,195.833 318.833,215.667 299,235.5C 290.5,227 282,218.5 273.5,210C 293.028,190.138 312.862,170.638 333,151.5C 333.449,148.906 332.449,146.906 330,145.5C 326.513,141.122 326.68,136.955 330.5,133C 348.063,122.726 365.397,112.226 382.5,101.5 Z"/></g>
<g><path style="opacity:1" fill="#2950fe" d="M 197.5,262.5 C 214.748,278.246 231.581,294.579 248,311.5C 248.667,312.167 248.667,312.833 248,313.5C 218.5,343 189,372.5 159.5,402C 145.693,410.204 131.693,410.538 117.5,403C 101.773,389.582 98.2729,373.415 107,354.5C 137.007,323.66 167.174,292.993 197.5,262.5 Z"/></g>
<g><path style="opacity:1" fill="#d3e4f3" d="M 200.5,300.5 C 210.81,301.135 213.977,306.135 210,315.5C 191.167,334.333 172.333,353.167 153.5,372C 143.55,374.722 139.05,370.889 140,360.5C 160.062,340.271 180.228,320.271 200.5,300.5 Z"/></g>
</svg>
