<?xml version="1.0" encoding="UTF-8"?>
<!DOCTYPE svg PUBLIC "-//W3C//DTD SVG 1.1//EN" "http://www.w3.org/Graphics/SVG/1.1/DTD/svg11.dtd">
<svg xmlns="http://www.w3.org/2000/svg" version="1.1" width="512px" height="512px" style="shape-rendering:geometricPrecision; text-rendering:geometricPrecision; image-rendering:optimizeQuality; fill-rule:evenodd; clip-rule:evenodd" xmlns:xlink="http://www.w3.org/1999/xlink">
<g><path style="opacity:1" fill="#d3e2ef" d="M 232.5,-0.5 C 247.833,-0.5 263.167,-0.5 278.5,-0.5C 368.144,10.3879 435.644,54.7213 481,132.5C 497.695,163.971 507.861,197.304 511.5,232.5C 511.5,247.833 511.5,263.167 511.5,278.5C 500.612,368.144 456.279,435.644 378.5,481C 347.029,497.695 313.696,507.861 278.5,511.5C 263.167,511.5 247.833,511.5 232.5,511.5C 142.856,500.612 75.3562,456.279 30,378.5C 13.3053,347.029 3.1386,313.696 -0.5,278.5C -0.5,263.167 -0.5,247.833 -0.5,232.5C 10.3875,142.857 54.7208,75.3573 132.5,30C 163.971,13.3053 197.304,3.1386 232.5,-0.5 Z"/></g>
<g><path style="opacity:1" fill="#2850fe" d="M 213.5,120.5 C 240.835,120.333 268.169,120.5 295.5,121C 306.075,122.698 313.242,128.531 317,138.5C 318.361,144.407 318.861,150.407 318.5,156.5C 340.836,156.333 363.169,156.5 385.5,157C 396.603,158.769 404.103,164.935 408,175.5C 411.851,257.478 373.018,293.145 291.5,282.5C 291.666,274.493 291.5,266.493 291,258.5C 284.892,242.184 273.058,235.184 255.5,237.5C 237.942,235.184 226.108,242.184 220,258.5C 219.5,266.493 219.334,274.493 219.5,282.5C 137.971,293.134 99.138,257.467 103,175.5C 106.566,166.268 113.066,160.101 122.5,157C 145.831,156.5 169.164,156.333 192.5,156.5C 190.308,138.856 197.308,126.856 213.5,120.5 Z"/></g>
<g><path style="opacity:1" fill="#d3e3f1" d="M 216.5,138.5 C 242.169,138.333 267.835,138.5 293.5,139C 296.573,139.739 298.74,141.572 300,144.5C 300.499,148.486 300.666,152.486 300.5,156.5C 270.5,156.5 240.5,156.5 210.5,156.5C 210.334,152.486 210.501,148.486 211,144.5C 212.36,141.977 214.193,139.977 216.5,138.5 Z"/></g>
<g><path style="opacity:1" fill="#2850fe" d="M 243.5,255.5 C 252.25,255.09 260.916,255.59 269.5,257C 271.049,258.214 272.215,259.714 273,261.5C 273.667,275.167 273.667,288.833 273,302.5C 272.654,304.848 271.487,306.681 269.5,308C 260.911,309.576 252.244,309.91 243.5,309C 241.714,308.215 240.214,307.049 239,305.5C 237.384,290.902 237.051,276.235 238,261.5C 239.36,258.977 241.193,256.977 243.5,255.5 Z"/></g>
<g><path style="opacity:1" fill="#6d8bf8" d="M 103.5,260.5 C 102.501,301.33 102.168,342.33 102.5,383.5C 101.335,342.002 101.169,300.335 102,258.5C 102.717,259.044 103.217,259.711 103.5,260.5 Z"/></g>
<g><path style="opacity:1" fill="#2850fe" d="M 102.5,383.5 C 102.168,342.33 102.501,301.33 103.5,260.5C 118.286,283.244 139.286,296.41 166.5,300C 184.164,300.5 201.83,300.667 219.5,300.5C 220.415,314.167 227.415,323 240.5,327C 249.833,327.667 259.167,327.667 268.5,327C 283.011,324.162 290.678,315.329 291.5,300.5C 306.837,300.667 322.17,300.5 337.5,300C 368.451,298.782 392.284,285.282 409,259.5C 409.667,300.833 409.667,342.167 409,383.5C 408.167,387 406,389.167 402.5,390C 304.167,390.667 205.833,390.667 107.5,390C 104.507,388.841 102.84,386.675 102.5,383.5 Z"/></g>
</svg>
